<svg xmlns="http://www.w3.org/2000/svg" viewBox="0 0 64 64" role="img" aria-label="FlockLedger logo">
  <defs>
    <linearGradient id="bg" x1="0" y1="0" x2="1" y2="1">
      <stop offset="0%" stop-color="#0f172a"/>
      <stop offset="100%" stop-color="#1e293b"/>
    </linearGradient>
  </defs>

  <rect x="4" y="4" width="56" height="56" rx="14" fill="url(#bg)"/>

  <rect x="29" y="17" width="18" height="30" rx="3" fill="#f8fafc"/>
  <rect x="31" y="20" width="1.6" height="24" fill="#cbd5e1"/>
  <rect x="34.5" y="24" width="10" height="1.8" rx="0.9" fill="#94a3b8"/>
  <rect x="34.5" y="29" width="10" height="1.8" rx="0.9" fill="#94a3b8"/>
  <rect x="34.5" y="34" width="8" height="1.8" rx="0.9" fill="#94a3b8"/>

  <path d="M16 38c0-5.4 4.2-9.6 10-9.6 3.1 0 5.8 1.2 7.5 3.2 2.1.2 3.9 1.8 4.2 4.1 2 1 3.3 3.1 3.3 5.7 0 4.1-3.2 6.8-8.1 6.8H23.8C19.1 48.2 16 44.5 16 38z" fill="#fbbf24"/>
  <path d="M22.1 27.4c.2-2.3 1.8-4.1 3.9-4.1 1.1 0 2.2.5 2.9 1.3.8-.8 1.8-1.3 3-1.3 2 0 3.7 1.8 3.8 4.1z" fill="#ef4444"/>
  <circle cx="28.3" cy="35.8" r="1.1" fill="#0f172a"/>
  <path d="M35.2 37.4l3.1 1.4-3.1 1.4z" fill="#f97316"/>
</svg>
